<svg width="713" height="193" viewBox="0 0 713 193" fill="none" xmlns="http://www.w3.org/2000/svg">
<path d="M712.509 0.397724C711.893 -0.167066 710.935 -0.125275 710.37 0.490854L661.078 54.2487L611.515 41.827L560.54 66.6268L508.522 18.0938L457.199 31.3492L405.906 177.908L357.618 155.183L305.131 51.0461L254.853 99.993L204.45 94.933L153.345 134.916L102.013 106.568L52.1066 138.835L51.972 138.922L51.8582 139.035L0.443726 190.415C-0.147644 191.006 -0.147949 191.965 0.442993 192.556C1.03394 193.148 1.99298 193.148 2.58429 192.557L53.8865 141.289L102.136 110.094L153.633 138.535L205.357 98.0669L255.953 103.147L304.285 56.0936L355.383 157.478L407.654 182.078L459.523 33.8755L507.671 21.4405L559.995 70.2596L611.85 45.0311L662.09 57.6243L712.602 2.53674C713.167 1.92054 713.125 0.962647 712.509 0.397724Z" fill="url(#paint0_linear_137_2983)"/>
<defs>
<linearGradient id="paint0_linear_137_2983" x1="356.5" y1="193" x2="356.5" y2="0" gradientUnits="userSpaceOnUse">
<stop stop-color="#007AFF"/>
<stop offset="1" stop-color="#EF4444"/>
</linearGradient>
</defs>
</svg>
