<svg width="80" height="80" viewBox="0 0 80 80" fill="none" xmlns="http://www.w3.org/2000/svg">
<rect width="80" height="80" rx="40" fill="white" fill-opacity="0.2"/>
<path d="M40 20.75C47.732 20.75 54 27.018 54 34.75V50.5H57.5C58.4665 50.5 59.25 51.2835 59.25 52.25C59.25 53.2165 58.4665 54 57.5 54H46.0625C45.6379 56.9682 43.0856 59.25 40 59.25C36.9144 59.25 34.3621 56.9682 33.9375 54H22.5C21.5335 54 20.75 53.2165 20.75 52.25C20.75 51.2835 21.5335 50.5 22.5 50.5H26V34.75C26 27.018 32.268 20.75 40 20.75ZM37.5273 54C37.888 55.019 38.8574 55.75 40 55.75C41.1426 55.75 42.112 55.019 42.4727 54H37.5273ZM40 24.25C34.201 24.25 29.5 28.951 29.5 34.75V50.5H50.5V34.75C50.5 28.951 45.799 24.25 40 24.25Z" fill="white"/>
</svg>
