<svg width="24" height="18" viewBox="0 0 24 18" fill="none" xmlns="http://www.w3.org/2000/svg">
<path d="M14.0175 6.98793L11.2412 13.8658C10.7773 15.0146 9.9812 15.999 8.95487 16.6917C7.92858 17.3843 6.71895 17.7543 5.48124 17.754H0L1.95603 12.9116H5.31559C5.75198 12.9121 6.17868 12.7817 6.54059 12.5376C6.90243 12.2935 7.18362 11.9468 7.347 11.5417L11.6022 0.995867L14.0175 6.98793ZM17.5517 17.754C16.69 16.9944 15.5822 16.5733 14.4341 16.5677C13.286 16.5622 12.1746 16.973 11.3057 17.7243L14.4173 11.2977L17.5517 17.754ZM24 17.753H19.1655L12 0H16.8345L24 17.753Z" fill="white"/>
</svg>
