<svg width="48" height="48" viewBox="0 0 48 48" fill="none" xmlns="http://www.w3.org/2000/svg">
<rect width="48" height="48" rx="8" fill="white" fill-opacity="0.1"/>
<rect x="0.5" y="0.5" width="47" height="47" rx="7.5" stroke="white" stroke-opacity="0.2"/>
<path d="M28.5254 13.856C28.7441 13.856 28.9357 13.9382 29.0996 14.1021C29.2634 14.2659 29.3447 14.4576 29.3447 14.6763C29.3447 14.895 29.2635 15.0866 29.0996 15.2505L20.5684 24.0005L29.0996 32.7505C29.2632 32.9142 29.3446 33.1053 29.3447 33.3237C29.3447 33.5424 29.2634 33.7341 29.0996 33.8979C28.9357 34.0618 28.7441 34.144 28.5254 34.144C28.3066 34.144 28.1151 34.0711 27.9512 33.9253L18.9004 24.6011C18.7365 24.4191 18.6543 24.2139 18.6543 23.9858C18.6544 23.7579 18.7365 23.5618 18.9004 23.3979L27.9512 14.0737V14.0747C28.1151 13.9289 28.3067 13.856 28.5254 13.856Z" fill="white"/>
</svg>
