<svg width="48" height="48" viewBox="0 0 48 48" fill="none" xmlns="http://www.w3.org/2000/svg">
<rect width="48" height="48" rx="8" fill="white" fill-opacity="0.1"/>
<rect x="0.5" y="0.5" width="47" height="47" rx="7.5" stroke="white" stroke-opacity="0.2"/>
<path d="M19.4746 13.8547C19.6932 13.8548 19.885 13.9277 20.0488 14.0735L29.0996 23.3967C29.2635 23.5606 29.3457 23.7619 29.3457 23.9993C29.3456 24.2365 29.2633 24.437 29.0996 24.6008L20.0488 33.925C19.885 34.0708 19.6932 34.1437 19.4746 34.1438C19.2559 34.1438 19.0643 34.0616 18.9004 33.8977C18.7365 33.7338 18.6543 33.5422 18.6543 33.3235C18.6544 33.105 18.7367 32.914 18.9004 32.7502L27.4316 24.0002L18.9004 15.2502C18.7365 15.0864 18.6543 14.8947 18.6543 14.676C18.6543 14.5119 18.7007 14.3579 18.793 14.2141L18.9004 14.0735C19.0643 13.9277 19.2559 13.8547 19.4746 13.8547Z" fill="white"/>
</svg>
