<svg width="40" height="40" viewBox="0 0 40 40" fill="none" xmlns="http://www.w3.org/2000/svg">
<circle cx="20" cy="20" r="20" fill="#007AFF"/>
<path d="M21.7043 18.4062L19.3616 24.21C18.9701 25.1794 18.2979 26.0102 17.4319 26.5947C16.5658 27.1793 15.5448 27.4915 14.5002 27.4912H9.87427L11.5256 23.4043H14.3606C14.7288 23.4047 15.0884 23.2948 15.3938 23.0889C15.6992 22.8828 15.9366 22.5899 16.0745 22.248L19.6663 13.3496L21.7043 18.4062ZM24.6868 27.4912C23.9596 26.8502 23.0248 26.495 22.0559 26.4902C21.0871 26.4856 20.1495 26.832 19.4163 27.4658L22.0413 22.043L24.6868 27.4912ZM30.1282 27.4912H26.0491L20.0012 12.5088H24.0813L30.1282 27.4912Z" fill="white"/>
</svg>
