<svg width="40" height="40" viewBox="0 0 40 40" fill="none" xmlns="http://www.w3.org/2000/svg">
<circle cx="20" cy="20" r="20" fill="#00D1FF"/>
<path d="M25.8333 21.6667H14.1667C13.2462 21.6667 12.5 22.4129 12.5 23.3334V25.8334C12.5 26.7538 13.2462 27.5 14.1667 27.5H25.8333C26.7538 27.5 27.5 26.7538 27.5 25.8334V23.3334C27.5 22.4129 26.7538 21.6667 25.8333 21.6667Z" stroke="white" stroke-width="2"/>
<path d="M18.3333 12.9167H14.1667C13.2462 12.9167 12.5 13.6629 12.5 14.5834V17.0834C12.5 18.0038 13.2462 18.75 14.1667 18.75H18.3333" stroke="white" stroke-width="2" stroke-linecap="round"/>
<path d="M24.1666 19.1667C26.0075 19.1667 27.4999 17.6743 27.4999 15.8333C27.4999 13.9924 26.0075 12.5 24.1666 12.5C22.3256 12.5 20.8333 13.9924 20.8333 15.8333C20.8333 17.6743 22.3256 19.1667 24.1666 19.1667Z" stroke="white" stroke-width="2"/>
<path d="M24.1667 17.0833C24.8571 17.0833 25.4167 16.5237 25.4167 15.8333C25.4167 15.143 24.8571 14.5833 24.1667 14.5833C23.4764 14.5833 22.9167 15.143 22.9167 15.8333C22.9167 16.5237 23.4764 17.0833 24.1667 17.0833Z" fill="white"/>
</svg>
