<svg width="194" height="54" viewBox="0 0 194 54" fill="none" xmlns="http://www.w3.org/2000/svg">
<g clip-path="url(#clip0_133_1514)">
<path d="M72.8407 53.9975H58.1687L36.4216 0H51.0936L72.8407 53.9975Z" fill="white"/>
<path d="M53.2687 54C50.6537 51.6892 47.2931 50.4067 43.8085 50.3896C40.3239 50.3726 36.9511 51.6222 34.3137 53.9073L43.7562 34.3629L53.2687 54Z" fill="white"/>
<path d="M35.2128 3.02942L22.2964 35.1022C21.8006 36.3344 20.9488 37.3897 19.8504 38.1323C18.7521 38.8748 17.4574 39.2708 16.133 39.2691H5.93623L0 53.9975H16.6349C20.3914 53.9987 24.0625 52.8736 27.1773 50.7668C30.2921 48.66 32.7085 45.6675 34.1164 42.1732L42.5425 21.2533L35.2128 3.02942Z" fill="white"/>
<path d="M154.107 7.4043V18.2714H164.481V7.4043H154.107ZM161.579 15.3573H157.012V10.3284H161.579V15.3573Z" fill="white"/>
<path d="M152.579 7.94803V10.8797H148.271L144.834 18.2714H141.598L142.889 15.5102H141.238L141.228 12.576H144.248L145.034 10.8797H141.238V9.58674L142.614 6.65259H145.841L145.234 7.94803H152.579Z" fill="white"/>
<path d="M152.579 15.5102H150.908L152.199 18.2715H148.993L147.844 15.8334L149.372 12.576H152.579V15.5102Z" fill="white"/>
<path d="M163.57 19.9077V31.0705H150.966L153.833 24.9191H157.079L155.578 28.1464H160.668V22.8218H145.044V28.1464H147.247L148.755 24.9191H152.009L149.145 31.0705H142.14V19.9077H163.57Z" fill="white"/>
<path d="M181.945 15.3573V27.6903L180.21 31.0704L176.993 31.0604L178.996 27.1365L179.033 18.2714H173.669V20.8899H177.175L173.709 26.9586L173.669 31.0704H170.765V15.3573H181.945Z" fill="white"/>
<path d="M181.843 10.6441L180.352 13.8614H170.765V10.6817L172.655 6.63501H175.882L173.879 10.9473H178.481L179.488 8.76735L181.843 10.6441Z" fill="white"/>
<path d="M194 15.0141L192.634 18.0334L183.474 18.0234V6.60498H186.341V15.0141H194Z" fill="white"/>
<path d="M193.128 8.18359L190.424 13.4305L187.215 13.413L189.892 8.18359H193.128Z" fill="white"/>
<path d="M194 28.0311L192.634 31.0605L183.474 31.0505V19.6221H186.341V28.0311H194Z" fill="white"/>
<path d="M193.128 21.1956L190.424 26.4324L187.215 26.4149L189.892 21.1956H193.128Z" fill="white"/>
<path d="M106.123 24.7286L105.563 31.0805H96.2032L97.6467 14.8812H90.6216L86.3012 31.0805H82.5052L86.8331 14.8812H82.3928L83.3593 11.263H87.8021L89.0358 6.63501H92.8243L91.5881 11.263H101.605L100.162 27.4522H102.252L102.487 24.7286H106.123Z" fill="white"/>
<path d="M132.77 11.223L134.945 6.65259H130.729L130.2 7.72753L113.79 8.63458L111.777 31.0705H115.413L117.121 12.0999L119.941 11.9421V31.0705H123.547V11.7391L125.967 11.6038L131.149 31.0705H134.945L129.69 11.3958L132.77 11.223Z" fill="white"/>
<path d="M111.749 37.6228V45.7989C111.749 46.9558 111.291 48.0654 110.476 48.8835C109.661 49.7016 108.555 50.1613 107.402 50.1613C106.831 50.1613 106.265 50.0484 105.738 49.8291C105.211 49.6099 104.732 49.2885 104.328 48.8834C103.924 48.4783 103.604 47.9973 103.386 47.4681C103.168 46.9388 103.056 46.3716 103.056 45.7989V37.6228H99.2427V45.8916C99.242 48.037 100.091 50.0948 101.602 51.6125C103.113 53.1302 105.163 53.9836 107.302 53.9849H107.501C108.56 53.9846 109.609 53.775 110.587 53.3681C111.565 52.9612 112.454 52.3649 113.203 51.6134C113.951 50.8619 114.545 49.9697 114.95 48.988C115.355 48.0062 115.563 46.9541 115.563 45.8916V37.6228H111.749Z" fill="white"/>
<path d="M95.3042 37.6254H88.9359L87.4075 41.4515H91.5157V46.6057C91.5183 47.543 91.15 48.4429 90.4915 49.1078C89.8331 49.7726 88.9385 50.148 88.0044 50.1513H83.9287L82.3928 53.985H88.6062C89.489 53.9827 90.3626 53.8058 91.1771 53.4644C91.9916 53.1231 92.7311 52.6239 93.3532 51.9956C93.9753 51.3672 94.4678 50.622 94.8026 49.8025C95.1373 48.983 95.3078 48.1053 95.3042 47.2196V37.6254Z" fill="white"/>
<path d="M134.233 45.3729C134.829 45.9727 135.264 46.713 135.5 47.5258C135.736 48.3386 135.765 49.1979 135.583 50.0246C135.402 50.8514 135.016 51.6191 134.461 52.2573C133.907 52.8954 133.202 53.3835 132.41 53.6767C131.856 53.8861 131.269 53.9923 130.677 53.9899H119.381L120.325 51.6471L120.548 51.0959L120.925 50.1562H130.664C130.987 50.1562 131.296 50.0277 131.524 49.7988C131.753 49.57 131.881 49.2596 131.881 48.936C131.881 48.6123 131.753 48.302 131.524 48.0731C131.296 47.8443 130.987 47.7157 130.664 47.7157H124.414C123.235 47.7151 122.094 47.2989 121.19 46.5398C120.286 45.7807 119.676 44.727 119.468 43.5629C119.26 42.3987 119.466 41.1981 120.05 40.171C120.635 39.1438 121.56 38.3554 122.665 37.9435C123.223 37.7271 123.816 37.6183 124.414 37.6228H135.702L134.158 41.449H124.419C124.391 41.4453 124.363 41.4453 124.336 41.449C124.026 41.4766 123.737 41.6225 123.531 41.8567C123.324 42.091 123.215 42.3958 123.225 42.7084C123.236 43.021 123.366 43.3177 123.588 43.5374C123.809 43.7571 124.107 43.8831 124.419 43.8895H130.674C131.336 43.889 131.991 44.0198 132.602 44.2743C133.212 44.5289 133.767 44.9023 134.233 45.3729Z" fill="white"/>
<path d="M147.999 43.391V53.9976H144.173V41.4541L147.999 43.391Z" fill="white"/>
<path d="M154.267 37.6228L152.721 41.4465V41.454L137.947 41.4465L139.493 37.6228H154.267Z" fill="white"/>
<path d="M156.535 43.3884V53.9975H160.371V44.8543V41.4515L156.535 43.3884Z" fill="white"/>
<path d="M172.855 43.1529C172.852 41.6837 172.267 40.276 171.23 39.2391C170.193 38.2022 168.787 37.6208 167.323 37.6228H158.083L156.537 41.4465H167.323C167.774 41.4465 168.206 41.626 168.524 41.9455C168.843 42.2651 169.021 42.6985 169.021 43.1504C169.021 43.6022 168.843 44.0356 168.524 44.3552C168.206 44.6747 167.774 44.8542 167.323 44.8542H160.381L167.873 53.9975H172.867L168.425 48.5701C169.672 48.3182 170.795 47.6413 171.602 46.654C172.41 45.6668 172.852 44.4299 172.855 43.1529Z" fill="white"/>
<path d="M194 53.9924H182.305L183.856 50.1562H188.606L186.231 44.2729L185.269 41.89L180.382 53.9924H176.536L183.149 37.6228H187.392L188.154 39.5121L194 53.9924Z" fill="white"/>
</g>
<defs>
<clipPath id="clip0_133_1514">
<rect width="194" height="54" fill="white"/>
</clipPath>
</defs>
</svg>
